<svg xmlns="http://www.w3.org/2000/svg" xml:space="preserve" fill-rule="evenodd" stroke-linejoin="round" stroke-miterlimit="2" clip-rule="evenodd" viewBox="0 0 390 246">
  <path fill-rule="nonzero" d="M.014 155.927h8.939L22.2 194.896l13.182-38.97h8.81v46.108h-5.916v-27.202c0-.964 0-2.507.064-4.694.064-2.186.064-4.501.064-7.009l-13.182 38.905h-6.173L5.802 163.129v1.415c0 1.157 0 2.83.064 5.144.064 2.315.129 4.051.129 5.144v27.202H.015v-46.107Z"/>
  <path fill-rule="nonzero" d="M46.957 155.927h7.266l13.247 22.12 13.247-22.12h7.331l-17.427 27.522v18.585h-6.237v-18.585l-17.427-27.522Z"/>
  <path fill-rule="nonzero" d="M111.556 215.02c.074-1.326.295-2.32.7-2.946.773-1.105 2.246-1.657 4.381-1.657.221 0 .405.037.626.037.221 0 .479.037.737.037v2.945c-.332 0-.553-.037-.737-.037h-.405c-.994 0-1.583.258-1.767.774-.184.515-.295 1.804-.295 3.866H118v2.577h-3.24v16.606h-3.204v-16.606h-2.651v-2.577h2.651v-3.02Z"/>
  <path fill-rule="nonzero" d="M119.245 217.965h3.056v3.314c.258-.626.884-1.436 1.878-2.357.958-.92 2.099-1.399 3.388-1.399.073 0 .147 0 .294.037.148 0 .405.037.737.074v3.424a2.888 2.888 0 0 0-.516-.074c-.184-.037-.331-.037-.552-.037-1.62 0-2.872.516-3.756 1.584a5.554 5.554 0 0 0-1.288 3.608v11.083h-3.24v-19.257Z"/>
  <path fill-rule="nonzero" d="M137.582 217.523c1.362 0 2.688.332 3.976.958 1.29.662 2.246 1.472 2.946 2.503.626.958 1.068 2.1 1.289 3.388.184.883.294 2.32.294 4.27h-14.139c.074 1.952.553 3.499 1.4 4.677.846 1.178 2.209 1.767 4.013 1.767 1.694 0 3.02-.552 4.05-1.656.552-.663.957-1.4 1.215-2.246h3.167c-.074.7-.332 1.51-.81 2.356a8.337 8.337 0 0 1-1.62 2.136c-.958.957-2.173 1.62-3.646 1.951-.773.184-1.657.295-2.614.295-2.43 0-4.455-.884-6.112-2.615-1.657-1.767-2.504-4.197-2.504-7.327 0-3.093.847-5.633 2.54-7.548 1.658-1.915 3.867-2.909 6.555-2.909Zm5.155 8.543c-.11-1.4-.442-2.541-.92-3.388-.885-1.546-2.357-2.32-4.42-2.32-1.509 0-2.724.553-3.755 1.62-.994 1.068-1.546 2.43-1.583 4.088h10.678Z"/>
  <path fill-rule="nonzero" d="M156.219 217.523c1.362 0 2.688.332 3.977.958 1.288.662 2.246 1.472 2.945 2.503.626.958 1.068 2.1 1.289 3.388.184.883.294 2.32.294 4.27h-14.139c.074 1.952.553 3.499 1.4 4.677.847 1.178 2.209 1.767 4.013 1.767 1.694 0 3.02-.552 4.05-1.656.553-.663.958-1.4 1.215-2.246h3.167c-.074.7-.331 1.51-.81 2.356a8.337 8.337 0 0 1-1.62 2.136c-.958.957-2.173 1.62-3.645 1.951-.774.184-1.657.295-2.615.295-2.43 0-4.455-.884-6.112-2.615-1.657-1.767-2.504-4.197-2.504-7.327 0-3.093.847-5.633 2.541-7.548 1.657-1.915 3.866-2.909 6.554-2.909Zm5.155 8.543c-.11-1.4-.442-2.541-.92-3.388-.884-1.546-2.357-2.32-4.42-2.32-1.509 0-2.724.553-3.755 1.62-.994 1.068-1.546 2.43-1.583 4.088h10.678Z"/>
  <path fill-rule="nonzero" d="M166.94 210.822h3.24v26.4h-3.24z"/>
  <path fill-rule="nonzero" d="M180.827 235.123c2.136 0 3.609-.81 4.419-2.43.773-1.62 1.178-3.424 1.178-5.412 0-1.805-.258-3.277-.847-4.382-.92-1.767-2.504-2.651-4.713-2.651-1.988 0-3.424.736-4.308 2.246-.92 1.51-1.362 3.35-1.362 5.486 0 2.025.442 3.756 1.362 5.118.884 1.363 2.32 2.025 4.271 2.025Zm.11-17.71c2.504 0 4.603.81 6.297 2.467 1.73 1.657 2.577 4.087 2.577 7.327 0 3.093-.736 5.67-2.246 7.695-1.51 2.025-3.866 3.02-7.032 3.02-2.651 0-4.75-.884-6.333-2.688-1.547-1.804-2.32-4.198-2.32-7.217 0-3.24.81-5.818 2.467-7.732 1.62-1.915 3.83-2.872 6.59-2.872Z"/>
  <path fill-rule="nonzero" d="M198.617 217.634c1.51 0 2.836.368 3.94 1.104.626.405 1.252 1.031 1.878 1.841v-2.43h2.983v17.527c0 2.43-.332 4.344-1.068 5.78-1.326 2.615-3.866 3.903-7.622 3.903-2.062 0-3.793-.442-5.229-1.399-1.399-.92-2.209-2.356-2.356-4.345h3.277c.147.847.479 1.51.957 1.989.737.736 1.878 1.067 3.425 1.067 2.503 0 4.123-.846 4.897-2.614.442-1.03.662-2.872.626-5.523-.663.994-1.436 1.73-2.357 2.21-.884.478-2.099.699-3.608.699-2.062 0-3.903-.736-5.45-2.21-1.583-1.472-2.356-3.939-2.356-7.326 0-3.24.773-5.744 2.356-7.549 1.584-1.84 3.461-2.724 5.707-2.724Zm5.818 9.867c0-2.356-.479-4.123-1.473-5.302-.994-1.141-2.246-1.73-3.755-1.73-2.283 0-3.83 1.068-4.677 3.203-.441 1.142-.662 2.651-.662 4.492 0 2.173.442 3.83 1.325 4.934.884 1.142 2.062 1.73 3.535 1.73 2.356 0 3.977-1.067 4.934-3.166.515-1.178.773-2.577.773-4.16Z"/>
  <path fill-rule="nonzero" d="M218.098 235.123c2.136 0 3.609-.81 4.419-2.43.773-1.62 1.178-3.424 1.178-5.412 0-1.805-.258-3.277-.847-4.382-.92-1.767-2.503-2.651-4.713-2.651-1.988 0-3.424.736-4.308 2.246-.92 1.51-1.362 3.35-1.362 5.486 0 2.025.442 3.756 1.362 5.118.884 1.363 2.32 2.025 4.271 2.025Zm.11-17.71c2.505 0 4.603.81 6.297 2.467 1.73 1.657 2.578 4.087 2.578 7.327 0 3.093-.737 5.67-2.246 7.695-1.51 2.025-3.867 3.02-7.033 3.02-2.651 0-4.75-.884-6.333-2.688-1.547-1.804-2.32-4.198-2.32-7.217 0-3.24.81-5.818 2.467-7.732 1.62-1.915 3.83-2.872 6.59-2.872Z"/>
  <path fill-rule="nonzero" d="M229.85 233.32h3.756v3.902h-3.756z"/>
  <path fill-rule="nonzero" d="M237.466 217.965h3.203v2.725c.774-.92 1.473-1.62 2.099-2.062 1.068-.737 2.283-1.105 3.645-1.105 1.51 0 2.762.405 3.682 1.142.553.441 1.031 1.067 1.436 1.914.737-1.03 1.584-1.804 2.54-2.283.995-.515 2.063-.773 3.278-.773 2.577 0 4.345.958 5.302 2.835.479.995.736 2.357.736 4.05v12.814h-3.35v-13.366c0-1.288-.332-2.172-.958-2.65-.662-.48-1.436-.737-2.356-.737-1.289 0-2.357.442-3.277 1.289-.92.846-1.4 2.282-1.4 4.27v11.194h-3.276v-12.556c0-1.325-.148-2.283-.479-2.872-.479-.883-1.4-1.362-2.725-1.362-1.252 0-2.356.479-3.35 1.436-.994.957-1.51 2.651-1.51 5.155v10.199h-3.24v-19.257Z"/>
  <path fill-rule="nonzero" d="M274.323 217.523c1.362 0 2.688.332 3.977.958 1.288.662 2.246 1.472 2.945 2.503.626.958 1.068 2.1 1.289 3.388.184.883.294 2.32.294 4.27H268.69c.074 1.952.553 3.499 1.4 4.677.847 1.178 2.209 1.767 4.013 1.767 1.694 0 3.02-.552 4.05-1.656.553-.663.958-1.4 1.215-2.246h3.167c-.074.7-.331 1.51-.81 2.356a8.337 8.337 0 0 1-1.62 2.136c-.958.957-2.173 1.62-3.645 1.951-.774.184-1.657.295-2.615.295-2.43 0-4.455-.884-6.112-2.615-1.657-1.767-2.504-4.197-2.504-7.327 0-3.093.847-5.633 2.541-7.548 1.657-1.915 3.866-2.909 6.554-2.909Zm5.155 8.543c-.11-1.4-.442-2.541-.92-3.388-.884-1.546-2.357-2.32-4.42-2.32-1.509 0-2.724.553-3.755 1.62-.994 1.068-1.546 2.43-1.583 4.088h10.678Z"/>
  <path fill-rule="nonzero" d="M122.698 197.287c-3.473 3.15-7.845 4.758-13.247 4.758-6.688 0-11.897-2.122-15.69-6.43-3.795-4.244-5.724-10.16-5.724-17.62 0-8.102 2.187-14.276 6.495-18.713 3.794-3.794 8.553-5.659 14.404-5.659 7.781 0 13.44 2.508 17.041 7.653 1.994 2.83 3.087 5.723 3.216 8.617h-9.646c-.643-2.187-1.48-3.923-2.444-5.016-1.736-1.994-4.373-3.022-7.845-3.022-3.473 0-6.238 1.414-8.295 4.244-1.994 2.83-3.023 6.88-3.023 12.025 0 5.208 1.03 9.131 3.216 11.703 2.122 2.572 4.887 3.859 8.166 3.859 3.408 0 5.98-1.094 7.781-3.344.965-1.158 1.8-2.958 2.444-5.338h9.581c-.836 5.016-3.022 9.132-6.43 12.283Z"/>
  <path fill-rule="nonzero" d="M153.768 202.045c-6.624 0-11.704-1.8-15.176-5.401-4.694-4.437-7.074-10.804-7.074-19.099 0-8.488 2.38-14.855 7.074-19.099 3.472-3.6 8.552-5.401 15.176-5.401 6.559 0 11.639 1.8 15.111 5.401 4.695 4.244 7.01 10.61 7.01 19.099 0 8.295-2.315 14.662-7.01 19.099-3.472 3.6-8.552 5.401-15.111 5.401Zm9.131-12.41c2.186-2.83 3.344-6.881 3.344-12.09s-1.158-9.196-3.408-12.025c-2.25-2.83-5.273-4.244-9.067-4.244-3.859 0-6.945 1.414-9.196 4.244-2.315 2.83-3.408 6.816-3.408 12.025 0 5.209 1.093 9.26 3.408 12.09 2.25 2.829 5.337 4.243 9.196 4.243 3.794 0 6.816-1.414 9.131-4.244Z"/>
  <path fill-rule="nonzero" d="M188.932 200.76h-9.003v-46.3h14.019l8.424 36.396 8.36-36.397h13.954v46.3h-9.067v-31.316c0-.9.064-2.123.064-3.794v-3.73l-8.746 38.84h-9.388l-8.681-38.84v3.73c.064 1.671.064 2.893.064 3.794v31.316Z"/>
  <path fill-rule="nonzero" d="M250.086 184.104h-9.839v16.655h-9.581v-46.3h20.127c4.63 0 8.36 1.222 11.125 3.602 2.765 2.379 4.116 6.109 4.116 11.06 0 5.466-1.35 9.324-4.116 11.575-2.765 2.315-6.688 3.408-11.832 3.408Zm4.501-9.646c1.286-1.093 1.865-2.83 1.865-5.273 0-2.379-.579-4.115-1.865-5.144s-3.022-1.543-5.337-1.543h-9.003v13.632h9.003c2.315 0 4.051-.514 5.337-1.672Z"/>
  <path fill-rule="nonzero" d="M292.72 191.242h-17.105l-3.15 9.517h-10.161l16.526-46.3h10.932l16.398 46.3h-10.482l-2.958-9.517Zm-2.7-7.974-5.788-18.198-5.98 18.198h11.767Z"/>
  <path fill-rule="nonzero" d="M346.233 200.76h-9.646l-18.906-32.86v32.86h-9.002v-46.3h10.096l18.455 32.345v-32.346h9.003v46.3Z"/>
  <path fill-rule="nonzero" d="m389.392 154.46-15.433 28.872v17.427h-9.71v-17.427l-16.012-28.873h11.382l9.646 20.192 9.195-20.192h10.932Z"/>
  <path fill="#009af6" d="M195.281 99.999c-14.94-9.98-25-28.63-25-50 0-21.36 10.06-40.02 25-50 14.95 9.98 25 28.64 25 50 0 21.37-10.05 40.02-25 50Z"/>
  <path d="M195.76 99.994c-7.949-16.113-7.336-37.294 3.349-55.801 10.68-18.499 28.722-29.629 46.65-30.802 7.957 16.118 7.331 37.303-3.349 55.802-10.685 18.507-28.714 29.633-46.65 30.801Z"/>
  <path d="M195.762 99.03c7.948-16.114 7.336-37.295-3.35-55.802-10.68-18.498-28.722-29.628-46.65-30.801-7.957 16.117-7.33 37.303 3.35 55.8 10.684 18.508 28.713 29.634 46.65 30.802Z"/>
  <path fill="#009af6" d="M195.284 99.994c1.173-17.929 12.294-35.966 30.801-46.65 18.499-10.68 39.689-11.299 55.801-3.35-1.167 17.937-12.302 35.97-30.8 46.65-18.508 10.685-39.684 11.307-55.802 3.35Z"/>
  <path fill="#009af6" d="M195.278 99.994c-1.173-17.929-12.294-35.966-30.8-46.65-18.5-10.68-39.69-11.299-55.802-3.35 1.168 17.937 12.303 35.97 30.801 46.65 18.507 10.685 39.683 11.307 55.801 3.35Z"/>
  <path d="M195.285 99.986c9.98-14.94 28.63-25 50-25 21.36 0 40.02 10.06 50 25-9.98 14.95-28.64 25-50 25-21.37 0-40.02-10.05-50-25Z"/>
  <path d="M195.276 99.986c-9.98-14.94-28.63-25-50-25-21.36 0-40.02 10.06-50 25 9.98 14.95 28.64 25 50 25 21.37 0 40.02-10.05 50-25Z"/>
</svg>
